<mxfile host="app.diagrams.net" modified="2024-06-02T21:09:04.610Z" agent="Mozilla/5.0 (Windows NT 10.0; Win64; x64) AppleWebKit/537.36 (KHTML, like Gecko) Chrome/125.0.0.0 Safari/537.36" etag="Ap-Qv5KVlt7hicEL2cOz" version="24.4.13" type="device">
  <diagram name="Página-1" id="rmSmkSgrGvNoEY7-4zfy">
    <mxGraphModel dx="2049" dy="1103" grid="1" gridSize="10" guides="1" tooltips="1" connect="1" arrows="1" fold="1" page="1" pageScale="1" pageWidth="827" pageHeight="1169" math="0" shadow="0">
      <root>
        <mxCell id="0" />
        <mxCell id="1" parent="0" />
        <mxCell id="9JKfZe11c85Hz1miag3j-9" style="edgeStyle=orthogonalEdgeStyle;rounded=0;orthogonalLoop=1;jettySize=auto;html=1;entryX=0.5;entryY=0;entryDx=0;entryDy=0;" edge="1" parent="1" source="9JKfZe11c85Hz1miag3j-1" target="9JKfZe11c85Hz1miag3j-8">
          <mxGeometry relative="1" as="geometry" />
        </mxCell>
        <mxCell id="9JKfZe11c85Hz1miag3j-1" value="&lt;p style=&quot;line-height: 100%;&quot;&gt;Seleciona número de voltas&lt;/p&gt;" style="shape=manualInput;whiteSpace=wrap;html=1;" vertex="1" parent="1">
          <mxGeometry x="350" y="340" width="90" height="100" as="geometry" />
        </mxCell>
        <mxCell id="9JKfZe11c85Hz1miag3j-20" style="edgeStyle=orthogonalEdgeStyle;rounded=0;orthogonalLoop=1;jettySize=auto;html=1;entryX=0.5;entryY=0;entryDx=0;entryDy=0;" edge="1" parent="1" source="9JKfZe11c85Hz1miag3j-2" target="9JKfZe11c85Hz1miag3j-15">
          <mxGeometry relative="1" as="geometry" />
        </mxCell>
        <mxCell id="9JKfZe11c85Hz1miag3j-2" value="&lt;p style=&quot;line-height: 100%;&quot;&gt;Seleciona sentido de rotação&lt;/p&gt;" style="shape=manualInput;whiteSpace=wrap;html=1;" vertex="1" parent="1">
          <mxGeometry x="350" y="620" width="90" height="100" as="geometry" />
        </mxCell>
        <mxCell id="9JKfZe11c85Hz1miag3j-4" value="Início" style="ellipse;whiteSpace=wrap;html=1;" vertex="1" parent="1">
          <mxGeometry x="340" y="250" width="120" height="30" as="geometry" />
        </mxCell>
        <mxCell id="9JKfZe11c85Hz1miag3j-6" style="edgeStyle=orthogonalEdgeStyle;rounded=0;orthogonalLoop=1;jettySize=auto;html=1;entryX=0.556;entryY=0.17;entryDx=0;entryDy=0;entryPerimeter=0;" edge="1" parent="1" source="9JKfZe11c85Hz1miag3j-4" target="9JKfZe11c85Hz1miag3j-1">
          <mxGeometry relative="1" as="geometry">
            <Array as="points">
              <mxPoint x="400" y="300" />
              <mxPoint x="400" y="300" />
            </Array>
          </mxGeometry>
        </mxCell>
        <mxCell id="9JKfZe11c85Hz1miag3j-18" style="edgeStyle=orthogonalEdgeStyle;rounded=0;orthogonalLoop=1;jettySize=auto;html=1;entryX=1;entryY=0.5;entryDx=0;entryDy=0;" edge="1" parent="1" source="9JKfZe11c85Hz1miag3j-8" target="9JKfZe11c85Hz1miag3j-17">
          <mxGeometry relative="1" as="geometry" />
        </mxCell>
        <mxCell id="9JKfZe11c85Hz1miag3j-21" value="SIM" style="edgeLabel;html=1;align=center;verticalAlign=middle;resizable=0;points=[];" vertex="1" connectable="0" parent="9JKfZe11c85Hz1miag3j-18">
          <mxGeometry x="0.0286" y="1" relative="1" as="geometry">
            <mxPoint x="6" y="-16" as="offset" />
          </mxGeometry>
        </mxCell>
        <mxCell id="9JKfZe11c85Hz1miag3j-8" value="Número&lt;div&gt;inválido&lt;/div&gt;" style="rhombus;whiteSpace=wrap;html=1;" vertex="1" parent="1">
          <mxGeometry x="350" y="470" width="90" height="90" as="geometry" />
        </mxCell>
        <mxCell id="9JKfZe11c85Hz1miag3j-13" style="edgeStyle=orthogonalEdgeStyle;rounded=0;orthogonalLoop=1;jettySize=auto;html=1;entryX=0.5;entryY=0.2;entryDx=0;entryDy=0;entryPerimeter=0;" edge="1" parent="1" source="9JKfZe11c85Hz1miag3j-8" target="9JKfZe11c85Hz1miag3j-2">
          <mxGeometry relative="1" as="geometry" />
        </mxCell>
        <mxCell id="9JKfZe11c85Hz1miag3j-14" value="NÃO" style="edgeLabel;html=1;align=center;verticalAlign=middle;resizable=0;points=[];" vertex="1" connectable="0" parent="9JKfZe11c85Hz1miag3j-13">
          <mxGeometry x="-0.0542" y="4" relative="1" as="geometry">
            <mxPoint x="15" as="offset" />
          </mxGeometry>
        </mxCell>
        <mxCell id="9JKfZe11c85Hz1miag3j-16" style="edgeStyle=orthogonalEdgeStyle;rounded=0;orthogonalLoop=1;jettySize=auto;html=1;entryX=0.5;entryY=1;entryDx=0;entryDy=0;" edge="1" parent="1" source="9JKfZe11c85Hz1miag3j-27" target="9JKfZe11c85Hz1miag3j-17">
          <mxGeometry relative="1" as="geometry">
            <mxPoint x="280" y="530" as="targetPoint" />
          </mxGeometry>
        </mxCell>
        <mxCell id="9JKfZe11c85Hz1miag3j-15" value="Sentido&lt;div&gt;inválido&lt;/div&gt;" style="rhombus;whiteSpace=wrap;html=1;" vertex="1" parent="1">
          <mxGeometry x="350" y="780" width="90" height="90" as="geometry" />
        </mxCell>
        <mxCell id="9JKfZe11c85Hz1miag3j-19" style="edgeStyle=orthogonalEdgeStyle;rounded=0;orthogonalLoop=1;jettySize=auto;html=1;" edge="1" parent="1" source="9JKfZe11c85Hz1miag3j-17">
          <mxGeometry relative="1" as="geometry">
            <mxPoint x="400" y="310" as="targetPoint" />
            <Array as="points">
              <mxPoint x="275" y="410" />
              <mxPoint x="275" y="410" />
            </Array>
          </mxGeometry>
        </mxCell>
        <mxCell id="9JKfZe11c85Hz1miag3j-17" value="" style="ellipse;whiteSpace=wrap;html=1;aspect=fixed;" vertex="1" parent="1">
          <mxGeometry x="270" y="510" width="10" height="10" as="geometry" />
        </mxCell>
        <mxCell id="9JKfZe11c85Hz1miag3j-26" style="edgeStyle=orthogonalEdgeStyle;rounded=0;orthogonalLoop=1;jettySize=auto;html=1;" edge="1" parent="1" source="9JKfZe11c85Hz1miag3j-23" target="9JKfZe11c85Hz1miag3j-25">
          <mxGeometry relative="1" as="geometry" />
        </mxCell>
        <mxCell id="9JKfZe11c85Hz1miag3j-23" value="&lt;p style=&quot;line-height: 100%;&quot;&gt;Seleciona passo&lt;/p&gt;" style="shape=manualInput;whiteSpace=wrap;html=1;" vertex="1" parent="1">
          <mxGeometry x="350" y="920" width="90" height="80" as="geometry" />
        </mxCell>
        <mxCell id="9JKfZe11c85Hz1miag3j-24" style="edgeStyle=orthogonalEdgeStyle;rounded=0;orthogonalLoop=1;jettySize=auto;html=1;entryX=0.5;entryY=0.213;entryDx=0;entryDy=0;entryPerimeter=0;" edge="1" parent="1" source="9JKfZe11c85Hz1miag3j-15" target="9JKfZe11c85Hz1miag3j-23">
          <mxGeometry relative="1" as="geometry" />
        </mxCell>
        <mxCell id="9JKfZe11c85Hz1miag3j-30" style="edgeStyle=orthogonalEdgeStyle;rounded=0;orthogonalLoop=1;jettySize=auto;html=1;entryX=0.5;entryY=1;entryDx=0;entryDy=0;" edge="1" parent="1" source="9JKfZe11c85Hz1miag3j-25" target="9JKfZe11c85Hz1miag3j-27">
          <mxGeometry relative="1" as="geometry" />
        </mxCell>
        <mxCell id="9JKfZe11c85Hz1miag3j-31" value="SIM" style="edgeLabel;html=1;align=center;verticalAlign=middle;resizable=0;points=[];" vertex="1" connectable="0" parent="9JKfZe11c85Hz1miag3j-30">
          <mxGeometry x="-0.7988" y="-3" relative="1" as="geometry">
            <mxPoint x="4" y="-12" as="offset" />
          </mxGeometry>
        </mxCell>
        <mxCell id="9JKfZe11c85Hz1miag3j-45" style="edgeStyle=orthogonalEdgeStyle;rounded=0;orthogonalLoop=1;jettySize=auto;html=1;entryX=0.5;entryY=1;entryDx=0;entryDy=0;" edge="1" parent="1" target="9JKfZe11c85Hz1miag3j-42">
          <mxGeometry relative="1" as="geometry">
            <mxPoint x="440" y="1096.46" as="sourcePoint" />
            <mxPoint x="521.4644660940671" y="884.9955339059329" as="targetPoint" />
          </mxGeometry>
        </mxCell>
        <mxCell id="9JKfZe11c85Hz1miag3j-46" value="NÃO" style="edgeLabel;html=1;align=center;verticalAlign=middle;resizable=0;points=[];" vertex="1" connectable="0" parent="9JKfZe11c85Hz1miag3j-45">
          <mxGeometry x="-0.7786" y="2" relative="1" as="geometry">
            <mxPoint x="7" y="-13" as="offset" />
          </mxGeometry>
        </mxCell>
        <mxCell id="9JKfZe11c85Hz1miag3j-25" value="Passo&lt;div&gt;inválido&lt;/div&gt;" style="rhombus;whiteSpace=wrap;html=1;" vertex="1" parent="1">
          <mxGeometry x="350" y="1050" width="90" height="90" as="geometry" />
        </mxCell>
        <mxCell id="9JKfZe11c85Hz1miag3j-28" value="" style="edgeStyle=orthogonalEdgeStyle;rounded=0;orthogonalLoop=1;jettySize=auto;html=1;entryX=1;entryY=0.5;entryDx=0;entryDy=0;" edge="1" parent="1" source="9JKfZe11c85Hz1miag3j-15" target="9JKfZe11c85Hz1miag3j-27">
          <mxGeometry relative="1" as="geometry">
            <mxPoint x="310" y="850" as="targetPoint" />
            <mxPoint x="350" y="825" as="sourcePoint" />
            <Array as="points">
              <mxPoint x="290" y="825" />
              <mxPoint x="290" y="825" />
            </Array>
          </mxGeometry>
        </mxCell>
        <mxCell id="9JKfZe11c85Hz1miag3j-29" value="SIM" style="edgeLabel;html=1;align=center;verticalAlign=middle;resizable=0;points=[];" vertex="1" connectable="0" parent="9JKfZe11c85Hz1miag3j-28">
          <mxGeometry x="-0.7737" y="-2" relative="1" as="geometry">
            <mxPoint x="-22" y="-13" as="offset" />
          </mxGeometry>
        </mxCell>
        <mxCell id="9JKfZe11c85Hz1miag3j-27" value="" style="ellipse;whiteSpace=wrap;html=1;aspect=fixed;" vertex="1" parent="1">
          <mxGeometry x="270" y="820" width="10" height="10" as="geometry" />
        </mxCell>
        <mxCell id="9JKfZe11c85Hz1miag3j-41" style="edgeStyle=orthogonalEdgeStyle;rounded=0;orthogonalLoop=1;jettySize=auto;html=1;" edge="1" parent="1" source="9JKfZe11c85Hz1miag3j-32">
          <mxGeometry relative="1" as="geometry">
            <mxPoint x="530" y="880" as="targetPoint" />
          </mxGeometry>
        </mxCell>
        <mxCell id="9JKfZe11c85Hz1miag3j-32" value="voltas--&lt;div&gt;angulos++&lt;/div&gt;" style="rounded=0;whiteSpace=wrap;html=1;" vertex="1" parent="1">
          <mxGeometry x="585" y="850" width="120" height="60" as="geometry" />
        </mxCell>
        <mxCell id="9JKfZe11c85Hz1miag3j-48" style="edgeStyle=orthogonalEdgeStyle;rounded=0;orthogonalLoop=1;jettySize=auto;html=1;entryX=0.5;entryY=0;entryDx=0;entryDy=0;" edge="1" parent="1" source="9JKfZe11c85Hz1miag3j-33" target="9JKfZe11c85Hz1miag3j-32">
          <mxGeometry relative="1" as="geometry" />
        </mxCell>
        <mxCell id="9JKfZe11c85Hz1miag3j-49" value="SIM" style="edgeLabel;html=1;align=center;verticalAlign=middle;resizable=0;points=[];" vertex="1" connectable="0" parent="9JKfZe11c85Hz1miag3j-48">
          <mxGeometry x="-0.0322" y="-2" relative="1" as="geometry">
            <mxPoint x="17" y="1" as="offset" />
          </mxGeometry>
        </mxCell>
        <mxCell id="9JKfZe11c85Hz1miag3j-33" value="voltas &amp;gt; 0" style="rhombus;whiteSpace=wrap;html=1;" vertex="1" parent="1">
          <mxGeometry x="600" y="700" width="90" height="90" as="geometry" />
        </mxCell>
        <mxCell id="9JKfZe11c85Hz1miag3j-53" style="edgeStyle=orthogonalEdgeStyle;rounded=0;orthogonalLoop=1;jettySize=auto;html=1;entryX=1;entryY=0.5;entryDx=0;entryDy=0;" edge="1" parent="1" source="9JKfZe11c85Hz1miag3j-38" target="9JKfZe11c85Hz1miag3j-4">
          <mxGeometry relative="1" as="geometry">
            <Array as="points">
              <mxPoint x="960" y="745" />
              <mxPoint x="960" y="265" />
            </Array>
          </mxGeometry>
        </mxCell>
        <mxCell id="9JKfZe11c85Hz1miag3j-38" value="Exibe voltas,&lt;div&gt;exibe angulo&lt;/div&gt;" style="shape=display;whiteSpace=wrap;html=1;" vertex="1" parent="1">
          <mxGeometry x="790" y="720" width="125" height="50" as="geometry" />
        </mxCell>
        <mxCell id="9JKfZe11c85Hz1miag3j-47" style="edgeStyle=orthogonalEdgeStyle;rounded=0;orthogonalLoop=1;jettySize=auto;html=1;entryX=0;entryY=0.5;entryDx=0;entryDy=0;exitX=0.5;exitY=0;exitDx=0;exitDy=0;" edge="1" parent="1" source="9JKfZe11c85Hz1miag3j-42" target="9JKfZe11c85Hz1miag3j-33">
          <mxGeometry relative="1" as="geometry">
            <Array as="points">
              <mxPoint x="525" y="745" />
            </Array>
          </mxGeometry>
        </mxCell>
        <mxCell id="9JKfZe11c85Hz1miag3j-42" value="" style="ellipse;whiteSpace=wrap;html=1;aspect=fixed;" vertex="1" parent="1">
          <mxGeometry x="520" y="875" width="10" height="10" as="geometry" />
        </mxCell>
        <mxCell id="9JKfZe11c85Hz1miag3j-51" style="edgeStyle=orthogonalEdgeStyle;rounded=0;orthogonalLoop=1;jettySize=auto;html=1;entryX=0;entryY=0.5;entryDx=0;entryDy=0;entryPerimeter=0;" edge="1" parent="1" source="9JKfZe11c85Hz1miag3j-33" target="9JKfZe11c85Hz1miag3j-38">
          <mxGeometry relative="1" as="geometry" />
        </mxCell>
        <mxCell id="9JKfZe11c85Hz1miag3j-52" value="NÃO" style="edgeLabel;html=1;align=center;verticalAlign=middle;resizable=0;points=[];" vertex="1" connectable="0" parent="9JKfZe11c85Hz1miag3j-51">
          <mxGeometry x="-0.0283" y="-2" relative="1" as="geometry">
            <mxPoint x="2" y="-17" as="offset" />
          </mxGeometry>
        </mxCell>
      </root>
    </mxGraphModel>
  </diagram>
</mxfile>
